Motion_pl05
version=1
nRows=5
nColumns=43
inDegrees=yes
endheader
time	pelvis_tilt	pelvis_list	pelvis_rotation	pelvis_tx	pelvis_ty	pelvis_tz	hip_flexion_r	hip_adduction_r	hip_rotation_r	knee_angle_r	ankle_angle_r	subtalar_angle_r	mtp_angle_r	hip_flexion_l	hip_adduction_l	hip_rotation_l	knee_angle_l	ankle_angle_l	subtalar_angle_l	mtp_angle_l	lumbar_extension	lumbar_bending	lumbar_rotation	neck_flexion	neck_lateral_bending	neck_rotation	arm_flex_r	arm_add_r	arm_rot_r	elbow_flex_r	pro_sup_r	wrist_flex_r	wrist_dev_r	hand_finger_flex_r	arm_flex_l	arm_add_l	arm_rot_l	elbow_flex_l	pro_sup_l	wrist_flex_l	wrist_dev_l	hand_finger_flex_l
      1.01500000	      1.95972394	     -0.27378363	     92.64596503	     -0.00921743	      0.79905849	      0.48454387	     48.09469321	     -9.38277352	    -10.35813447	    -62.79847401	     16.53935979	      7.87793970	     -4.76583404	     50.17423055	     -6.91931750	     -0.71108223	    -64.14879083	     18.52157446	      1.14573925	    -13.78685811	    -23.31005881	      7.13656298	      1.12119806	    -20.58818859	     -0.76217972	      2.18146323	    -60.47575037	     -1.90371109	    -66.29521464	     40.46005797	     94.47668328	    -29.51842982	    -17.74258534	     30.70532798	    -68.58438580	     -8.16435835	    -51.82045007	     24.71133489	     90.19641794	    -37.39710861	     -0.66125553	     78.55486851
      1.01750000	      2.04526604	     -0.03592047	     92.56561365	     -0.00946318	      0.78954354	      0.48251545	     48.89065852	     -9.40121476	    -10.23177217	    -64.97994977	     18.49652395	      7.53396398	     -4.84974127	     50.97801601	     -6.89610740	     -0.44154637	    -66.33174008	     20.57425345	      0.72886952	    -13.78076572	    -24.17725300	      7.20525793	      1.33358763	    -19.58472805	     -0.55590892	      2.16778059	    -59.41481869	     -2.41016823	    -64.96646974	     40.42477906	     95.03481655	    -29.21864023	    -17.84097564	     30.81411373	    -67.06691617	     -8.21747431	    -50.62532297	     25.05336755	     90.76412671	    -37.09778675	     -0.74264821	     78.76086396
      1.02000000	      2.08688102	      0.07166794	     92.48369108	     -0.00951696	      0.77999087	      0.48084478	     49.90122055	     -9.39482965	     -9.97532353	    -67.13624275	     20.14701805	      7.02432513	     -4.80090338	     51.94376647	     -6.81583810	     -0.17315083	    -68.43890311	     22.28425782	      0.13557316	    -13.69253450	    -24.94322219	      7.23149522	      1.49518961	    -18.52943360	     -0.51669343	      2.14144729	    -58.25244012	     -2.77128434	    -63.86912930	     40.65587735	     95.44214240	    -29.03523010	    -18.01689353	     30.86400651	    -65.37614141	     -8.21799373	    -49.93600135	     25.34518648	     90.97631805	    -36.90564951	     -0.78965652	     78.85713693
      1.02250000	      1.97459080	     -0.67693367	     92.20960602	     -0.00902144	      0.76880669	      0.47939172	     52.09486116	     -9.33364464	     -9.35994501	    -69.46968785	     21.40360692	      6.42167670	     -5.59933991	     53.86894660	     -6.78148470	     -0.15912776	    -70.56685489	     23.66253266	     -0.29206790	    -14.31427931	    -24.69451626	      6.93036077	      1.71176090	    -17.87509347	     -0.33355727	      2.21923611	    -57.26617384	     -3.29014128	    -62.02145894	     40.69202515	     95.55113538	    -29.46334486	    -18.50197296	     30.55959041	    -63.95886973	     -8.42791395	    -48.33527144	     25.50708898	     90.75177957	    -36.43733013	     -1.23470955	     78.99032280
      1.02500000	      1.98532008	     -0.75735347	     92.12987870	     -0.00909284	      0.75936581	      0.47826443	     53.39797351	     -9.36875958	     -9.10258445	    -71.54123602	     22.39880784	      5.95248922	     -5.86405192	     55.12790062	     -6.65881901	      0.07528485	    -72.60881822	     24.52365266	     -0.94039951	    -14.54531899	    -25.33002747	      6.90382297	      1.87897908	    -16.78583305	     -0.24820281	      2.16801230	    -56.13844754	     -3.87167427	    -60.29258503	     40.82364842	     95.78046810	    -29.31424997	    -18.75824026	     30.56573877	    -62.23262713	     -8.56862245	    -47.09776571	     25.80475131	     90.84000879	    -36.21884248	     -1.47370930	     79.05644106
